<svg width="212" height="75" viewBox="0 0 212 75" fill="none" xmlns="http://www.w3.org/2000/svg">
<path fill-rule="evenodd" clip-rule="evenodd" d="M28.6504 17.5113C30.5872 17.5113 31.6282 17.8154 32.7759 19.1124C35.5349 22.2297 34.0216 29.5609 29.6211 29.5609H28.6504V47.9066C28.6504 48.097 31.2875 51.7889 31.4105 51.9676L33.4822 54.9845C33.7533 55.3948 34.0716 55.7491 34.1509 56.0482H48.3876C48.3734 55.3994 47.6671 54.7043 47.0765 53.894L37.3219 40.5898C37.1612 40.3548 37.1041 40.2901 36.9519 40.0939C36.7211 39.7961 36.6671 39.8691 36.6316 39.4393C38.083 39.099 40.6568 37.5094 41.6753 36.4829C42.4476 35.7046 42.1786 36.1744 42.8711 35.2983C44.0016 33.8683 44.511 33.552 45.4933 31.4243C45.5843 31.2273 45.6702 31.037 45.7631 30.8273C47.1326 27.7354 47.3883 23.591 46.7068 20.2885C46.1598 17.6374 45.0743 15.3171 43.5036 13.1999C41.0988 9.95801 37.4605 7.54983 33.4587 6.80966C33.092 6.74177 32.8238 6.72793 32.5237 6.66529C31.5339 6.45841 29.7432 6.54731 28.6504 6.54731V17.5113Z" fill="#DA0303"/>
<path fill-rule="evenodd" clip-rule="evenodd" d="M9.77586 9.26087C9.77586 10.8071 10.592 12.2621 12.0813 12.5852C12.831 12.748 13.6846 12.394 14.1779 13.0804L19.3466 19.9276C19.3597 19.9466 19.3774 19.9733 19.3905 19.992C20.2939 21.2608 18.9264 20.9876 19.184 22.2824C19.1733 23.0429 19.5354 23.5184 19.6984 24.1329C19.0835 24.8447 16.2483 27.3754 15.8135 27.9302L13.1908 30.5011C12.8424 30.7933 12.9194 30.5058 12.7956 30.9719C12.229 30.9591 11.7458 30.6462 11.2068 30.7062C10.2784 30.8092 9.32501 31.329 8.72409 32.0844C7.82162 33.2185 8.08828 35.0546 8.99092 35.9956C10.1288 37.1817 10.7548 37.0592 12.1486 36.9424L20.3655 49.7317C20.628 50.1166 21.4283 51.207 21.5318 51.5972C20.9026 52.5431 20.7768 52.7173 20.7768 53.9856C20.7768 54.4714 21.6047 55.7991 22.47 56.1894C22.5256 56.2144 22.6444 56.2619 22.6964 56.2872C23.2486 56.5556 23.3484 56.5909 24.0124 56.5909C25.4751 56.5909 27.1402 55.2925 27.1402 53.7683C27.1402 53.1203 27.1162 52.5145 26.8126 51.927C26.3502 51.0323 25.8466 50.7443 24.9871 50.3992C24.272 50.1119 24.3309 50.2273 23.581 50.4023C22.8349 49.6898 21.7193 47.7992 21.0774 46.843L19.8519 45.0369C19.6694 44.7655 19.653 44.6289 19.4538 44.3522C19.3025 44.1421 19.1818 43.9837 19.0497 43.7819C18.4629 42.8843 17.4575 41.4987 17.0019 40.6323C17.5508 40.6323 22.5992 40.4689 23.1495 40.7408C23.5199 40.8758 23.2437 40.7236 23.4848 41.0548C23.5826 41.189 23.6933 41.3546 23.7957 41.5017C24.3961 42.3627 27.8727 47.2343 28.0029 47.797H28.3265V29.5597C26.4723 29.5597 18.6332 29.387 17.4334 29.6683C17.6013 29.2014 20.1441 27.0004 20.5885 26.5478C21.2792 25.8445 21.3471 25.5432 22.2868 25.5432C26.6797 25.5432 27.142 19.3556 21.8553 19.3556C21.5553 18.7848 20.6072 17.9582 20.5611 17.4017C21.0479 17.6769 27.2687 17.5101 28.3265 17.5101V6.43759C25.8768 6.43759 15.4725 6.56495 13.8798 6.43123C13.4785 6.39768 13.491 6.33074 13.0092 6.31913C11.9316 6.2929 10.9347 6.93699 10.3427 7.76741C10.0733 8.14536 9.77586 8.66101 9.77586 9.25933" fill="black"/>
<path fill-rule="evenodd" clip-rule="evenodd" d="M22.367 19.2041C24.1856 19.2041 25.6597 20.6879 25.6597 22.5183C25.6597 24.3486 24.1856 25.8324 22.367 25.8324C20.5484 25.8324 19.0742 24.3486 19.0742 22.5183C19.0742 20.6879 20.5484 19.2041 22.367 19.2041Z" fill="black"/>
<path fill-rule="evenodd" clip-rule="evenodd" d="M22.3676 19.0439C20.4636 19.0439 18.915 20.6027 18.915 22.5189C18.915 24.4352 20.4636 25.9908 22.3676 25.9908C24.2715 25.9908 25.817 24.4352 25.817 22.5189C25.817 20.6027 24.2715 19.0439 22.3676 19.0439ZM22.3676 19.3638C24.1008 19.3638 25.5023 20.7745 25.5023 22.5189C25.5023 24.2634 24.1008 25.6741 22.3676 25.6741C20.6343 25.6741 19.2328 24.2634 19.2328 22.5189C19.2328 20.7745 20.6343 19.3638 22.3676 19.3638Z" fill="black"/>
<path fill-rule="evenodd" clip-rule="evenodd" d="M12.8818 6.14062C14.7003 6.14062 16.1745 7.62458 16.1745 9.45494C16.1745 11.2852 14.7003 12.7691 12.8818 12.7691C11.0632 12.7691 9.58887 11.2852 9.58887 9.45494C9.58887 7.62458 11.0632 6.14062 12.8818 6.14062Z" fill="black"/>
<path fill-rule="evenodd" clip-rule="evenodd" d="M12.8801 5.98242C10.9761 5.98242 9.43066 7.53802 9.43066 9.45431C9.43066 11.3705 10.9761 12.9293 12.8801 12.9293C14.784 12.9293 16.3327 11.3705 16.3327 9.45431C16.3327 7.53803 14.784 5.98242 12.8801 5.98242ZM12.8801 6.29918C14.6133 6.29918 16.0149 7.70987 16.0149 9.45431C16.0149 11.1986 14.6133 12.6094 12.8801 12.6094C11.1469 12.6094 9.74537 11.1986 9.74537 9.45431C9.74537 7.70988 11.1469 6.29918 12.8801 6.29918Z" fill="black"/>
<path fill-rule="evenodd" clip-rule="evenodd" d="M11.3338 30.3105C13.1523 30.3105 14.6267 31.7945 14.6267 33.6249C14.6267 35.4552 13.1523 36.939 11.3338 36.939C9.51532 36.939 8.04102 35.4552 8.04102 33.6249C8.04102 31.7945 9.51532 30.3105 11.3338 30.3105Z" fill="black"/>
<path fill-rule="evenodd" clip-rule="evenodd" d="M11.3342 30.1523C9.43041 30.1523 7.88477 31.7079 7.88477 33.6242C7.88477 35.5405 9.43042 37.0961 11.3342 37.0961C13.2381 37.0961 14.7868 35.5405 14.7868 33.6242C14.7868 31.7079 13.2381 30.1523 11.3342 30.1523ZM11.3342 30.4691C13.0674 30.4691 14.469 31.8797 14.469 33.6242C14.469 35.3687 13.0674 36.7794 11.3342 36.7794C9.60116 36.7794 8.19947 35.3687 8.19947 33.6242C8.19947 31.8797 9.60117 30.4691 11.3342 30.4691Z" fill="black"/>
<path fill-rule="evenodd" clip-rule="evenodd" d="M24.0008 49.998C25.8193 49.998 27.2937 51.4818 27.2937 53.3122C27.2937 55.1426 25.8193 56.6263 24.0008 56.6263C22.1822 56.6263 20.708 55.1426 20.708 53.3122C20.708 51.4818 22.1822 49.998 24.0008 49.998Z" fill="black"/>
<path fill-rule="evenodd" clip-rule="evenodd" d="M23.9993 49.8408C22.0953 49.8408 20.5498 51.3964 20.5498 53.3127C20.5498 55.229 22.0953 56.7846 23.9993 56.7846C25.9032 56.7846 27.4518 55.229 27.4518 53.3127C27.4518 51.3964 25.9032 49.8408 23.9993 49.8408ZM23.9993 50.1576C25.7324 50.1576 27.134 51.5682 27.134 53.3127C27.134 55.0571 25.7324 56.4678 23.9993 56.4678C22.266 56.4678 20.8645 55.0571 20.8645 53.3127C20.8645 51.5682 22.266 50.1576 23.9993 50.1576Z" fill="black"/>
<path d="M53.374 6.95117H60.2383V55.2801H53.374V6.95117Z" fill="black"/>
<path d="M53.3754 6.55371C53.2707 6.55372 53.1702 6.5956 53.0961 6.67015C53.0221 6.74469 52.9805 6.84579 52.9805 6.95121V55.2813C52.9805 55.3867 53.0221 55.4878 53.0961 55.5624C53.1702 55.6369 53.2707 55.6788 53.3754 55.6788H60.2373C60.342 55.6788 60.4425 55.6369 60.5165 55.5624C60.5906 55.4878 60.6322 55.3867 60.6322 55.2813V6.95121C60.6322 6.84579 60.5906 6.74469 60.5165 6.67015C60.4425 6.5956 60.342 6.55372 60.2373 6.55371H53.3754ZM53.7703 7.34871H59.8424V54.8838H53.7703V7.34871Z" fill="black"/>
<path d="M65.7178 6.98535H74.1224L86.9134 25.1508L99.7379 6.98535H108.142L106.736 8.97378L91.1324 31.1498L106.736 53.2922L108.142 55.2806H99.7379L86.9134 37.1151L84.469 33.6101L82.7278 31.1498L67.1241 8.97378L65.7178 6.98535ZM78.5088 37.1151L82.7278 43.0804L74.1224 55.2806H65.7178L67.1241 53.2922L78.5088 37.1151Z" fill="black"/>
<path d="M65.717 6.58789C65.6447 6.58816 65.5739 6.6084 65.5122 6.64641C65.4505 6.68442 65.4004 6.73874 65.3673 6.80345C65.3342 6.86817 65.3194 6.94078 65.3245 7.01339C65.3296 7.08599 65.3544 7.1558 65.3962 7.21519L66.8031 9.20268L82.4058 31.3787L84.146 33.8382L86.5896 37.3443C86.5907 37.3443 86.5917 37.3443 86.5928 37.3443L99.4156 55.5111C99.452 55.5628 99.5001 55.6049 99.5559 55.6341C99.6117 55.6633 99.6736 55.6786 99.7365 55.6788H108.141C108.214 55.6795 108.286 55.6598 108.349 55.6219C108.411 55.584 108.462 55.5293 108.496 55.4639C108.529 55.3986 108.544 55.3252 108.539 55.2518C108.533 55.1784 108.508 55.108 108.465 55.0484L107.058 53.0609L91.6157 31.1489L107.058 9.20268L108.465 7.21519C108.507 7.15558 108.532 7.08549 108.537 7.01261C108.542 6.93974 108.527 6.86689 108.493 6.80207C108.46 6.73726 108.409 6.68298 108.347 6.6452C108.285 6.60741 108.214 6.58759 108.141 6.58789H99.7364C99.6735 6.58812 99.6116 6.60345 99.5558 6.63262C99.5 6.66178 99.4519 6.70394 99.4155 6.75559L86.9136 24.4629L74.4456 6.75559C74.4089 6.70351 74.3603 6.66109 74.3039 6.6319C74.2476 6.60271 74.185 6.58762 74.1216 6.58789H65.717ZM66.4853 7.38289H73.918L86.5927 25.379C86.629 25.4304 86.677 25.4725 86.7327 25.5016C86.7883 25.5307 86.85 25.546 86.9128 25.5463C86.9755 25.5466 87.0374 25.5319 87.0933 25.5033C87.1493 25.4748 87.1976 25.4332 87.2345 25.3821L99.9431 7.38289H107.376L106.413 8.74308L90.8104 30.9191C90.7631 30.9863 90.7377 31.0666 90.7377 31.1489C90.7377 31.2312 90.7631 31.3115 90.8104 31.3787L106.413 53.5205C106.413 53.5216 106.413 53.5227 106.413 53.5237L107.376 54.8839H99.9431L87.2345 36.8846L84.7908 33.3817C84.7908 33.3806 84.7908 33.3796 84.7908 33.3785L83.0507 30.9191L67.4479 8.74308C67.4469 8.74307 67.4458 8.74307 67.4448 8.74308L66.4853 7.38289ZM78.509 36.717C78.4456 36.7167 78.3831 36.7318 78.3267 36.761C78.2703 36.7902 78.2217 36.8326 78.185 36.8846L66.8031 53.0609L65.3962 55.0484C65.3535 55.1078 65.328 55.1779 65.3224 55.251C65.3169 55.3241 65.3315 55.3973 65.3647 55.4626C65.3979 55.5278 65.4484 55.5825 65.5106 55.6207C65.5728 55.6588 65.6442 55.679 65.717 55.6788H74.1216C74.185 55.6791 74.2476 55.664 74.3039 55.6348C74.3603 55.6056 74.4089 55.5632 74.4456 55.5111L83.0507 43.3098C83.098 43.2426 83.1234 43.1623 83.1234 43.08C83.1234 42.9977 83.098 42.9174 83.0507 42.8502L78.8299 36.8846C78.7935 36.833 78.7454 36.7908 78.6896 36.7617C78.6338 36.7325 78.5719 36.7172 78.509 36.717ZM78.509 37.8008L82.2423 43.08L73.918 54.8838H66.4853L67.4448 53.5236C67.4459 53.5226 67.447 53.5215 67.448 53.5205L78.509 37.8008Z" fill="black"/>
<path d="M126.475 6.95117H128.116C129.947 6.95117 131.677 7.33313 133.306 8.09705C134.958 8.83849 136.387 9.86079 137.592 11.1639C138.798 9.86079 140.215 8.83849 141.845 8.09705C143.474 7.33313 145.204 6.95117 147.035 6.95117H148.709C152.236 6.95117 155.261 8.23186 157.783 10.7932C160.328 13.3321 161.601 16.3766 161.601 19.9265V55.2801H154.736V19.9265C154.736 18.2189 154.156 16.781 152.995 15.6126C151.834 14.4443 150.406 13.8601 148.709 13.8601H147.035C145.338 13.8601 143.91 14.4443 142.749 15.6126C141.588 16.781 141.008 18.2189 141.008 19.9265V38.0246H134.143V19.9265C134.143 18.2189 133.563 16.781 132.402 15.6126C131.241 14.4443 129.813 13.8601 128.116 13.8601H126.475C124.779 13.8601 123.35 14.4443 122.189 15.6126C121.029 16.781 120.448 18.2189 120.448 19.9265V55.2801H113.584V19.9265C113.584 16.3766 114.845 13.3321 117.368 10.7932C119.913 8.23186 122.948 6.95117 126.475 6.95117Z" fill="black"/>
<path d="M126.474 6.55371C122.852 6.55371 119.698 7.88687 117.088 10.5132C114.501 13.1176 113.188 16.281 113.188 19.9258V55.2813C113.188 55.3867 113.23 55.4878 113.304 55.5624C113.378 55.6369 113.479 55.6788 113.583 55.6788H120.448C120.553 55.6788 120.654 55.6369 120.728 55.5624C120.802 55.4878 120.843 55.3867 120.843 55.2813V19.9258C120.843 18.3089 121.377 16.9948 122.469 15.8949C123.562 14.795 124.868 14.2583 126.474 14.2583H128.116C129.722 14.2583 131.031 14.795 132.123 15.8949C133.216 16.9948 133.749 18.3089 133.749 19.9258V38.0243C133.749 38.1297 133.791 38.2308 133.865 38.3054C133.939 38.3799 134.04 38.4218 134.144 38.4218H141.006C141.111 38.4218 141.211 38.3799 141.286 38.3054C141.36 38.2308 141.401 38.1297 141.401 38.0243V19.9258C141.401 18.3089 141.934 16.9948 143.027 15.8949C144.12 14.795 145.429 14.2583 147.035 14.2583H148.707C150.314 14.2583 151.622 14.795 152.715 15.8949C153.808 16.9948 154.341 18.3089 154.341 19.9258V55.2813C154.341 55.3867 154.383 55.4878 154.457 55.5624C154.531 55.6369 154.631 55.6788 154.736 55.6788H161.601C161.706 55.6788 161.806 55.6369 161.88 55.5624C161.954 55.4878 161.996 55.3867 161.996 55.2813V19.9258C161.996 16.2811 160.671 13.1169 158.062 10.5132C155.475 7.88601 152.329 6.55371 148.707 6.55371H147.035C145.15 6.55371 143.36 6.94892 141.679 7.73689C140.115 8.44896 138.776 9.46716 137.591 10.684C136.404 9.46719 135.055 8.44859 133.472 7.73689C131.791 6.94892 130.001 6.55371 128.116 6.55371H126.474ZM126.474 7.34871H128.116C129.891 7.34871 131.56 7.71749 133.139 8.45735C133.141 8.4584 133.143 8.45944 133.145 8.46045C134.751 9.18127 136.134 10.1711 137.304 11.4355C137.341 11.4752 137.385 11.5069 137.435 11.5286C137.485 11.5503 137.538 11.5615 137.592 11.5615C137.646 11.5615 137.7 11.5503 137.75 11.5286C137.799 11.5069 137.844 11.4752 137.881 11.4355C139.051 10.1702 140.422 9.18105 142.006 8.46046C142.008 8.45944 142.01 8.45841 142.012 8.45736C143.59 7.71749 145.259 7.34871 147.035 7.34871H148.707C152.139 7.34871 155.046 8.57656 157.504 11.0721C157.504 11.0732 157.504 11.0742 157.504 11.0752C159.983 13.5489 161.206 16.4714 161.206 19.9258V54.8838H155.131V19.9258C155.131 18.1275 154.503 16.5696 153.274 15.3328C152.045 14.096 150.494 13.4633 148.707 13.4633H147.035C145.248 13.4633 143.698 14.096 142.469 15.3328C141.24 16.5696 140.611 18.1275 140.611 19.9258V37.6268H134.539V19.9258C134.539 18.1275 133.911 16.5696 132.682 15.3328C131.453 14.096 129.902 13.4633 128.116 13.4633H126.474C124.688 13.4633 123.14 14.096 121.911 15.3328C120.682 16.5696 120.053 18.1275 120.053 19.9258V54.8838H113.978V19.9258C113.978 16.4706 115.189 13.5486 117.647 11.0752C120.127 8.5788 123.042 7.34871 126.474 7.34871Z" fill="black"/>
<path d="M162.57 6.98535H170.807L183.13 25.589L195.485 6.98535H203.723L183.13 38.0251L162.57 6.98535ZM179.714 44.934H186.579V55.2806H179.714V44.934Z" fill="black"/>
<path d="M162.57 6.58789C162.499 6.58762 162.428 6.60696 162.367 6.64382C162.305 6.68068 162.255 6.73368 162.221 6.79716C162.187 6.86064 162.171 6.9322 162.174 7.0042C162.178 7.07619 162.2 7.1459 162.24 7.20588L182.801 38.2448C182.837 38.2993 182.886 38.3439 182.943 38.3748C183.001 38.4056 183.065 38.4218 183.13 38.4218C183.195 38.4218 183.259 38.4056 183.316 38.3748C183.373 38.3439 183.422 38.2993 183.458 38.2448L204.05 7.20588C204.09 7.14612 204.112 7.0767 204.116 7.00497C204.119 6.93325 204.104 6.86191 204.07 6.79853C204.036 6.73515 203.987 6.6821 203.925 6.64501C203.864 6.60793 203.794 6.58819 203.723 6.58789H195.485C195.42 6.58815 195.357 6.60443 195.3 6.6353C195.243 6.66617 195.194 6.71068 195.158 6.7649L183.128 24.8728L171.135 6.7649C171.099 6.71068 171.051 6.66617 170.994 6.6353C170.937 6.60443 170.873 6.58815 170.808 6.58789H162.57ZM163.308 7.38289H170.595L182.801 25.8106C182.837 25.8651 182.886 25.9097 182.943 25.9406C183.001 25.9714 183.065 25.9876 183.13 25.9876C183.195 25.9876 183.259 25.9714 183.316 25.9406C183.373 25.9097 183.422 25.8651 183.458 25.8106L195.695 7.38289H202.983L183.131 37.307L163.308 7.38289ZM179.713 44.5365C179.608 44.5365 179.507 44.5784 179.433 44.6529C179.359 44.7275 179.318 44.8286 179.318 44.934V55.2813C179.318 55.3867 179.359 55.4879 179.433 55.5624C179.507 55.6369 179.608 55.6788 179.713 55.6788H186.578C186.682 55.6788 186.783 55.6369 186.857 55.5624C186.931 55.4879 186.973 55.3867 186.973 55.2813V44.934C186.973 44.8286 186.931 44.7275 186.857 44.6529C186.783 44.5784 186.682 44.5365 186.578 44.5365H179.713ZM180.108 45.3315H186.183V54.8838H180.108V45.3315Z" fill="black"/>
<path d="M8.37305 61.3115H10.0232L12.5253 66.2073L15.0059 61.3115H16.6561V68.9103H15.3295V63.4609L12.9783 68.1287H12.0508L9.68884 63.4609V68.9103H8.37305V61.3115Z" fill="#666666"/>
<path d="M24.2594 68.9103L23.5907 67.3037H19.9022L19.2335 68.9103H17.7344L21.0454 61.3115H22.5446L25.8125 68.9103H24.2594ZM20.4199 66.0553H23.073L21.7573 62.8638L20.4199 66.0553Z" fill="#666666"/>
<path d="M31.2913 68.9103L29.9863 66.6633C29.9288 66.6705 29.8389 66.6741 29.7167 66.6741H28.0126V68.9103H26.5674V61.3115H29.7167C30.6945 61.3115 31.4495 61.5395 31.9816 61.9954C32.5136 62.4513 32.7797 63.0954 32.7797 63.9277C32.7797 64.5211 32.6502 65.0277 32.3914 65.4474C32.1397 65.8672 31.7694 66.182 31.2805 66.3918L32.9414 68.9103L31.2913 68.9103ZM28.0126 65.3932H29.7167C30.2631 65.3932 30.6801 65.2738 30.9677 65.035C31.2553 64.7961 31.3992 64.4415 31.3992 63.9711C31.3992 63.508 31.2553 63.1606 30.9677 62.929C30.6801 62.6974 30.2631 62.5816 29.7167 62.5816H28.0126V65.3932Z" fill="#666666"/>
<path d="M41.149 68.9103H39.4125L37.0398 65.6537L35.8534 66.9672V68.9103H34.4082V61.3115H35.8534V65.1L39.2615 61.3115H40.9656L38.0644 64.5247L41.149 68.9103Z" fill="#666666"/>
<path d="M42.1631 61.3115H47.6959V62.5816H43.6083V64.4596H47.2753V65.7297H43.6083V67.6402H47.8253V68.9103H42.1631V61.3115Z" fill="#666666"/>
<path d="M48.5479 61.3115H54.7062V62.6033H52.355V68.9103H50.899V62.6033H48.5479V61.3115Z" fill="#666666"/>
<path d="M55.7197 61.3115H57.1649V68.9103H55.7197V61.3115Z" fill="#666666"/>
<path d="M64.3267 61.3115H65.7287V68.9103H64.359L60.4763 63.678V68.9103H59.0635V61.3115H60.4332L64.3267 66.5547V61.3115Z" fill="#666666"/>
<path d="M72.9437 65.1326H74.2056V68.0202C73.8101 68.3169 73.3427 68.5593 72.8035 68.7475C72.2642 68.9284 71.7358 69.0189 71.2181 69.0189C70.4775 69.0189 69.8016 68.8452 69.1904 68.4978C68.5865 68.1504 68.1083 67.68 67.756 67.0866C67.4037 66.4859 67.2275 65.8238 67.2275 65.1001C67.2275 64.3764 67.4073 63.7215 67.7668 63.1353C68.1263 62.5418 68.6152 62.0751 69.2336 61.7349C69.8591 61.3876 70.5494 61.2139 71.3043 61.2139C71.8436 61.2139 72.3757 61.3116 72.9006 61.507C73.4254 61.7024 73.8784 61.9701 74.2595 62.3103L73.4398 63.3849C73.1522 63.1099 72.8179 62.8964 72.4368 62.7445C72.0629 62.5925 71.6854 62.5165 71.3043 62.5165C70.8298 62.5165 70.3912 62.6323 69.9885 62.8639C69.5931 63.0882 69.2803 63.3994 69.0502 63.7974C68.8202 64.1955 68.7051 64.6297 68.7051 65.1001C68.7051 65.5777 68.8202 66.0155 69.0502 66.4136C69.2875 66.8116 69.6039 67.1264 69.9993 67.358C70.3948 67.5896 70.8334 67.7054 71.3151 67.7054C71.574 67.7054 71.8436 67.6656 72.124 67.586C72.4116 67.4991 72.6848 67.3797 72.9437 67.2277V65.1326Z" fill="#666666"/>
<path d="M82.1873 61.3115C82.9423 61.3115 83.6182 61.4744 84.2149 61.8C84.8117 62.1184 85.2791 62.5671 85.617 63.1461C85.9549 63.725 86.1239 64.38 86.1239 65.1109C86.1239 65.8418 85.9513 66.4968 85.6062 67.0757C85.2683 67.6474 84.7973 68.0961 84.1934 68.4218C83.5894 68.7474 82.9027 68.9103 82.1334 68.9103H79.0488V61.3115H82.1873ZM82.2197 67.6293C82.6798 67.6293 83.0933 67.5244 83.46 67.3145C83.8339 67.0974 84.1251 66.8007 84.3336 66.4244C84.5421 66.0408 84.6463 65.6066 84.6463 65.1218C84.6463 64.6369 84.5385 64.2027 84.3228 63.8191C84.1071 63.4283 83.8087 63.128 83.4276 62.9181C83.0537 62.701 82.6331 62.5925 82.1657 62.5925H80.494V67.6293H82.2197Z" fill="#666666"/>
<path d="M87.957 61.3115H89.4022V68.9103H87.957V61.3115Z" fill="#666666"/>
<path d="M96.4232 65.1326H97.6851V68.0202C97.2896 68.3169 96.8222 68.5593 96.283 68.7475C95.7437 68.9284 95.2152 69.0189 94.6976 69.0189C93.957 69.0189 93.2811 68.8452 92.6699 68.4978C92.066 68.1504 91.5878 67.68 91.2355 67.0866C90.8832 66.4859 90.707 65.8238 90.707 65.1001C90.707 64.3764 90.8868 63.7215 91.2463 63.1353C91.6058 62.5418 92.0947 62.0751 92.7131 61.7349C93.3386 61.3876 94.0289 61.2139 94.7838 61.2139C95.3231 61.2139 95.8552 61.3116 96.38 61.507C96.9049 61.7024 97.3579 61.9701 97.739 62.3103L96.9193 63.3849C96.6317 63.1099 96.2974 62.8964 95.9163 62.7445C95.5424 62.5925 95.1649 62.5165 94.7838 62.5165C94.3093 62.5165 93.8707 62.6323 93.468 62.8639C93.0726 63.0882 92.7598 63.3994 92.5297 63.7974C92.2996 64.1955 92.1846 64.6297 92.1846 65.1001C92.1846 65.5777 92.2996 66.0155 92.5297 66.4136C92.767 66.8116 93.0834 67.1264 93.4788 67.358C93.8743 67.5896 94.3129 67.7054 94.7946 67.7054C95.0535 67.7054 95.3231 67.6656 95.6035 67.586C95.8911 67.4991 96.1643 67.3797 96.4232 67.2277V65.1326Z" fill="#666666"/>
<path d="M99.627 61.3115H101.072V68.9103H99.627V61.3115Z" fill="#666666"/>
<path d="M102.129 61.3115H108.287V62.6033H105.936V68.9103H104.48V62.6033H102.129V61.3115Z" fill="#666666"/>
<path d="M114.51 68.9103L113.842 67.3037H110.153L109.484 68.9103H107.985L111.296 61.3115H112.796L116.063 68.9103H114.51ZM110.671 66.0553H113.324L112.008 62.8638L110.671 66.0553Z" fill="#666666"/>
<path d="M116.818 61.3115H118.264V67.5968H121.521V68.9103H116.818V61.3115Z" fill="#666666"/>
<path d="M131.713 68.9103L131.044 67.3037H127.355L126.687 68.9103H125.188L128.499 61.3115H129.998L133.266 68.9103H131.713ZM127.873 66.0553H130.526L129.21 62.8638L127.873 66.0553Z" fill="#666666"/>
<path d="M140.351 61.2139C141.099 61.2139 141.778 61.3839 142.389 61.7241C143.008 62.0642 143.493 62.531 143.845 63.1244C144.198 63.7178 144.374 64.3764 144.374 65.1001C144.374 65.8238 144.198 66.4859 143.845 67.0866C143.493 67.68 143.008 68.1504 142.389 68.4978C141.778 68.8452 141.099 69.0189 140.351 69.0189C139.603 69.0189 138.92 68.8452 138.302 68.4978C137.691 68.1504 137.209 67.68 136.857 67.0866C136.504 66.4859 136.328 65.8238 136.328 65.1001C136.328 64.3764 136.504 63.7178 136.857 63.1244C137.209 62.531 137.691 62.0642 138.302 61.7241C138.92 61.3839 139.603 61.2139 140.351 61.2139ZM140.373 62.5165C139.912 62.5165 139.485 62.6323 139.089 62.8639C138.694 63.0882 138.381 63.3994 138.151 63.7974C137.921 64.1882 137.806 64.6224 137.806 65.1001C137.806 65.5777 137.921 66.0155 138.151 66.4136C138.388 66.8116 138.701 67.1264 139.089 67.358C139.485 67.5896 139.912 67.7054 140.373 67.7054C140.826 67.7054 141.246 67.5896 141.634 67.358C142.023 67.1264 142.328 66.8116 142.551 66.4136C142.781 66.0155 142.896 65.5777 142.896 65.1001C142.896 64.6224 142.781 64.1882 142.551 63.7974C142.328 63.3994 142.023 63.0882 141.634 62.8639C141.246 62.6323 140.826 62.5165 140.373 62.5165Z" fill="#666666"/>
<path d="M145.032 61.3115H151.191V62.6033H148.839V68.9103H147.383V62.6033H145.032V61.3115Z" fill="#666666"/>
<path d="M156.928 68.9103L155.623 66.6633C155.565 66.6705 155.476 66.6741 155.353 66.6741H153.649V68.9103H152.204V61.3115H155.353C156.331 61.3115 157.086 61.5395 157.618 61.9954C158.15 62.4513 158.416 63.0954 158.416 63.9277C158.416 64.5211 158.287 65.0277 158.028 65.4474C157.776 65.8672 157.406 66.182 156.917 66.3918L158.578 68.9103L156.928 68.9103ZM153.649 65.3932H155.353C155.9 65.3932 156.317 65.2738 156.604 65.035C156.892 64.7961 157.036 64.4415 157.036 63.9711C157.036 63.508 156.892 63.1606 156.604 62.929C156.317 62.6974 155.9 62.5816 155.353 62.5816H153.649V65.3932Z" fill="#666666"/>
<path d="M163.475 61.2139C164.223 61.2139 164.902 61.3839 165.513 61.7241C166.132 62.0642 166.617 62.531 166.969 63.1244C167.322 63.7178 167.498 64.3764 167.498 65.1001C167.498 65.8238 167.322 66.4859 166.969 67.0866C166.617 67.68 166.132 68.1504 165.513 68.4978C164.902 68.8452 164.223 69.0189 163.475 69.0189C162.727 69.0189 162.044 68.8452 161.426 68.4978C160.815 68.1504 160.333 67.68 159.981 67.0866C159.628 66.4859 159.452 65.8238 159.452 65.1001C159.452 64.3764 159.628 63.7178 159.981 63.1244C160.333 62.531 160.815 62.0642 161.426 61.7241C162.044 61.3839 162.727 61.2139 163.475 61.2139ZM163.497 62.5165C163.036 62.5165 162.609 62.6323 162.213 62.8639C161.818 63.0882 161.505 63.3994 161.275 63.7974C161.045 64.1882 160.93 64.6224 160.93 65.1001C160.93 65.5777 161.045 66.0155 161.275 66.4136C161.512 66.8116 161.825 67.1264 162.213 67.358C162.609 67.5896 163.036 67.7054 163.497 67.7054C163.95 67.7054 164.37 67.5896 164.758 67.358C165.147 67.1264 165.452 66.8116 165.675 66.4136C165.905 66.0155 166.02 65.5777 166.02 65.1001C166.02 64.6224 165.905 64.1882 165.675 63.7974C165.452 63.3994 165.147 63.0882 164.758 62.8639C164.37 62.6323 163.95 62.5165 163.497 62.5165Z" fill="#666666"/>
<path d="M177.269 61.3115H178.671V68.9103H177.301L173.419 63.678V68.9103H172.006V61.3115H173.376L177.269 66.5547V61.3115Z" fill="#666666"/>
<path d="M180.764 61.3115H182.209V68.9103H180.764V61.3115Z" fill="#666666"/>
<path d="M183.125 61.3115H184.678L186.9 67.2928L189.143 61.3115H190.632L187.612 68.9103H186.113L183.125 61.3115Z" fill="#666666"/>
<path d="M191.548 61.3115H197.081V62.5816H192.993V64.4596H196.66V65.7297H192.993V67.6402H197.21V68.9103H191.548V61.3115Z" fill="#666666"/>
<path d="M198.774 61.3115H200.22V67.5968H203.477V68.9103H198.774V61.3115Z" fill="#666666"/>
</svg>
